<mxfile host="Electron" agent="Mozilla/5.0 (Windows NT 10.0; Win64; x64) AppleWebKit/537.36 (KHTML, like Gecko) draw.io/26.1.1 Chrome/132.0.6834.210 Electron/34.3.3 Safari/537.36" version="26.1.1">
  <diagram name="Page-1" id="0Er2M6jI3SD_tE10qwYu">
    <mxGraphModel dx="1264" dy="716" grid="1" gridSize="10" guides="1" tooltips="1" connect="1" arrows="1" fold="1" page="1" pageScale="1" pageWidth="850" pageHeight="1100" math="0" shadow="0">
      <root>
        <mxCell id="0" />
        <mxCell id="1" parent="0" />
        <mxCell id="L-UXguyQIa5jLVYT8j9s-49" value="" style="rounded=1;whiteSpace=wrap;html=1;" vertex="1" parent="1">
          <mxGeometry x="569" y="199" width="128.75" height="70" as="geometry" />
        </mxCell>
        <mxCell id="L-UXguyQIa5jLVYT8j9s-43" value="" style="rounded=1;whiteSpace=wrap;html=1;" vertex="1" parent="1">
          <mxGeometry x="574" y="359" width="128.75" height="70" as="geometry" />
        </mxCell>
        <mxCell id="L-UXguyQIa5jLVYT8j9s-42" value="" style="rounded=1;whiteSpace=wrap;html=1;" vertex="1" parent="1">
          <mxGeometry x="567" y="604" width="128.75" height="70" as="geometry" />
        </mxCell>
        <mxCell id="L-UXguyQIa5jLVYT8j9s-1" value="" style="sketch=0;points=[[0,0,0],[0.25,0,0],[0.5,0,0],[0.75,0,0],[1,0,0],[0,1,0],[0.25,1,0],[0.5,1,0],[0.75,1,0],[1,1,0],[0,0.25,0],[0,0.5,0],[0,0.75,0],[1,0.25,0],[1,0.5,0],[1,0.75,0]];outlineConnect=0;fontColor=#232F3E;fillColor=#E7157B;strokeColor=#ffffff;dashed=0;verticalLabelPosition=bottom;verticalAlign=top;align=center;html=1;fontSize=12;fontStyle=0;aspect=fixed;shape=mxgraph.aws4.resourceIcon;resIcon=mxgraph.aws4.api_gateway;" vertex="1" parent="1">
          <mxGeometry x="241" y="400" width="78" height="78" as="geometry" />
        </mxCell>
        <mxCell id="L-UXguyQIa5jLVYT8j9s-2" value="" style="sketch=0;points=[[0,0,0],[0.25,0,0],[0.5,0,0],[0.75,0,0],[1,0,0],[0,1,0],[0.25,1,0],[0.5,1,0],[0.75,1,0],[1,1,0],[0,0.25,0],[0,0.5,0],[0,0.75,0],[1,0.25,0],[1,0.5,0],[1,0.75,0]];outlineConnect=0;fontColor=#232F3E;fillColor=#7AA116;strokeColor=#ffffff;dashed=0;verticalLabelPosition=bottom;verticalAlign=top;align=center;html=1;fontSize=12;fontStyle=0;aspect=fixed;shape=mxgraph.aws4.resourceIcon;resIcon=mxgraph.aws4.s3;" vertex="1" parent="1">
          <mxGeometry x="481" y="200" width="78" height="78" as="geometry" />
        </mxCell>
        <mxCell id="L-UXguyQIa5jLVYT8j9s-3" value="&lt;strong style=&quot;margin: 0px; padding: 0px; color: rgb(66, 66, 66); font-family: &amp;quot;Segoe UI&amp;quot;, &amp;quot;Segoe UI Web (West European)&amp;quot;, &amp;quot;Segoe UI&amp;quot;, -apple-system, BlinkMacSystemFont, Roboto, &amp;quot;Helvetica Neue&amp;quot;, sans-serif; font-size: 14px; text-align: left; background-color: rgb(255, 255, 255);&quot;&gt;Amazon Cognito&lt;/strong&gt;" style="text;html=1;align=center;verticalAlign=middle;whiteSpace=wrap;rounded=0;" vertex="1" parent="1">
          <mxGeometry x="222" y="296" width="116" height="30" as="geometry" />
        </mxCell>
        <mxCell id="L-UXguyQIa5jLVYT8j9s-4" value="&lt;strong style=&quot;margin: 0px; padding: 0px; color: rgb(66, 66, 66); font-family: &amp;quot;Segoe UI&amp;quot;, &amp;quot;Segoe UI Web (West European)&amp;quot;, &amp;quot;Segoe UI&amp;quot;, -apple-system, BlinkMacSystemFont, Roboto, &amp;quot;Helvetica Neue&amp;quot;, sans-serif; font-size: 14px; text-align: left; background-color: rgb(255, 255, 255);&quot;&gt;DynamoDB&lt;/strong&gt;" style="text;html=1;align=center;verticalAlign=middle;whiteSpace=wrap;rounded=0;" vertex="1" parent="1">
          <mxGeometry x="718" y="497" width="82" height="30" as="geometry" />
        </mxCell>
        <mxCell id="L-UXguyQIa5jLVYT8j9s-5" value="&lt;strong style=&quot;margin: 0px; padding: 0px; color: rgb(66, 66, 66); font-family: &amp;quot;Segoe UI&amp;quot;, &amp;quot;Segoe UI Web (West European)&amp;quot;, &amp;quot;Segoe UI&amp;quot;, -apple-system, BlinkMacSystemFont, Roboto, &amp;quot;Helvetica Neue&amp;quot;, sans-serif; font-size: 14px; text-align: left; background-color: rgb(255, 255, 255);&quot;&gt;Amazon S3&lt;/strong&gt;" style="text;html=1;align=center;verticalAlign=middle;whiteSpace=wrap;rounded=0;" vertex="1" parent="1">
          <mxGeometry x="481" y="299" width="82" height="30" as="geometry" />
        </mxCell>
        <mxCell id="L-UXguyQIa5jLVYT8j9s-6" value="&lt;strong style=&quot;margin: 0px; padding: 0px; color: rgb(66, 66, 66); font-family: &amp;quot;Segoe UI&amp;quot;, &amp;quot;Segoe UI Web (West European)&amp;quot;, &amp;quot;Segoe UI&amp;quot;, -apple-system, BlinkMacSystemFont, Roboto, &amp;quot;Helvetica Neue&amp;quot;, sans-serif; font-size: 14px; text-align: left; background-color: rgb(255, 255, 255);&quot;&gt;API Gateway&lt;/strong&gt;" style="text;html=1;align=center;verticalAlign=middle;whiteSpace=wrap;rounded=0;" vertex="1" parent="1">
          <mxGeometry x="233.5" y="498" width="91" height="30" as="geometry" />
        </mxCell>
        <mxCell id="L-UXguyQIa5jLVYT8j9s-7" value="&lt;strong style=&quot;margin: 0px; padding: 0px; color: rgb(66, 66, 66); font-family: &amp;quot;Segoe UI&amp;quot;, &amp;quot;Segoe UI Web (West European)&amp;quot;, &amp;quot;Segoe UI&amp;quot;, -apple-system, BlinkMacSystemFont, Roboto, &amp;quot;Helvetica Neue&amp;quot;, sans-serif; font-size: 14px; text-align: left; background-color: rgb(255, 255, 255);&quot;&gt;AWS Lambda&lt;/strong&gt;" style="text;html=1;align=center;verticalAlign=middle;whiteSpace=wrap;rounded=0;" vertex="1" parent="1">
          <mxGeometry x="479" y="497" width="90" height="30" as="geometry" />
        </mxCell>
        <mxCell id="L-UXguyQIa5jLVYT8j9s-8" value="" style="sketch=0;points=[[0,0,0],[0.25,0,0],[0.5,0,0],[0.75,0,0],[1,0,0],[0,1,0],[0.25,1,0],[0.5,1,0],[0.75,1,0],[1,1,0],[0,0.25,0],[0,0.5,0],[0,0.75,0],[1,0.25,0],[1,0.5,0],[1,0.75,0]];outlineConnect=0;fontColor=#232F3E;fillColor=#C925D1;strokeColor=#ffffff;dashed=0;verticalLabelPosition=bottom;verticalAlign=top;align=center;html=1;fontSize=12;fontStyle=0;aspect=fixed;shape=mxgraph.aws4.resourceIcon;resIcon=mxgraph.aws4.dynamodb;" vertex="1" parent="1">
          <mxGeometry x="720.75" y="400" width="78" height="78" as="geometry" />
        </mxCell>
        <mxCell id="L-UXguyQIa5jLVYT8j9s-22" value="" style="edgeStyle=orthogonalEdgeStyle;rounded=0;orthogonalLoop=1;jettySize=auto;html=1;" edge="1" parent="1" source="L-UXguyQIa5jLVYT8j9s-9" target="L-UXguyQIa5jLVYT8j9s-1">
          <mxGeometry relative="1" as="geometry" />
        </mxCell>
        <mxCell id="L-UXguyQIa5jLVYT8j9s-9" value="" style="sketch=0;points=[[0,0,0],[0.25,0,0],[0.5,0,0],[0.75,0,0],[1,0,0],[0,1,0],[0.25,1,0],[0.5,1,0],[0.75,1,0],[1,1,0],[0,0.25,0],[0,0.5,0],[0,0.75,0],[1,0.25,0],[1,0.5,0],[1,0.75,0]];outlineConnect=0;fontColor=#232F3E;fillColor=#DD344C;strokeColor=#ffffff;dashed=0;verticalLabelPosition=bottom;verticalAlign=top;align=center;html=1;fontSize=12;fontStyle=0;aspect=fixed;shape=mxgraph.aws4.resourceIcon;resIcon=mxgraph.aws4.cognito;" vertex="1" parent="1">
          <mxGeometry x="241" y="200" width="78" height="78" as="geometry" />
        </mxCell>
        <mxCell id="L-UXguyQIa5jLVYT8j9s-10" value="" style="sketch=0;points=[[0,0,0],[0.25,0,0],[0.5,0,0],[0.75,0,0],[1,0,0],[0,1,0],[0.25,1,0],[0.5,1,0],[0.75,1,0],[1,1,0],[0,0.25,0],[0,0.5,0],[0,0.75,0],[1,0.25,0],[1,0.5,0],[1,0.75,0]];outlineConnect=0;fontColor=#232F3E;fillColor=#E7157B;strokeColor=#ffffff;dashed=0;verticalLabelPosition=bottom;verticalAlign=top;align=center;html=1;fontSize=12;fontStyle=0;aspect=fixed;shape=mxgraph.aws4.resourceIcon;resIcon=mxgraph.aws4.sns;" vertex="1" parent="1">
          <mxGeometry x="481" y="600" width="78" height="78" as="geometry" />
        </mxCell>
        <mxCell id="L-UXguyQIa5jLVYT8j9s-12" value="&lt;strong style=&quot;margin: 0px; padding: 0px; color: rgb(66, 66, 66); font-family: &amp;quot;Segoe UI&amp;quot;, &amp;quot;Segoe UI Web (West European)&amp;quot;, &amp;quot;Segoe UI&amp;quot;, -apple-system, BlinkMacSystemFont, Roboto, &amp;quot;Helvetica Neue&amp;quot;, sans-serif; font-size: 14px; text-align: left; background-color: rgb(255, 255, 255);&quot;&gt;Amazon SNS&lt;/strong&gt;" style="text;html=1;align=center;verticalAlign=middle;whiteSpace=wrap;rounded=0;" vertex="1" parent="1">
          <mxGeometry x="479" y="692" width="90" height="30" as="geometry" />
        </mxCell>
        <mxCell id="L-UXguyQIa5jLVYT8j9s-44" value="" style="edgeStyle=orthogonalEdgeStyle;rounded=0;orthogonalLoop=1;jettySize=auto;html=1;" edge="1" parent="1" source="L-UXguyQIa5jLVYT8j9s-14" target="L-UXguyQIa5jLVYT8j9s-8">
          <mxGeometry relative="1" as="geometry" />
        </mxCell>
        <mxCell id="L-UXguyQIa5jLVYT8j9s-45" value="" style="edgeStyle=orthogonalEdgeStyle;rounded=0;orthogonalLoop=1;jettySize=auto;html=1;" edge="1" parent="1" source="L-UXguyQIa5jLVYT8j9s-2" target="L-UXguyQIa5jLVYT8j9s-14">
          <mxGeometry relative="1" as="geometry" />
        </mxCell>
        <mxCell id="L-UXguyQIa5jLVYT8j9s-51" value="" style="edgeStyle=orthogonalEdgeStyle;rounded=0;orthogonalLoop=1;jettySize=auto;html=1;" edge="1" parent="1" source="L-UXguyQIa5jLVYT8j9s-14" target="L-UXguyQIa5jLVYT8j9s-10">
          <mxGeometry relative="1" as="geometry" />
        </mxCell>
        <mxCell id="L-UXguyQIa5jLVYT8j9s-14" value="" style="sketch=0;points=[[0,0,0],[0.25,0,0],[0.5,0,0],[0.75,0,0],[1,0,0],[0,1,0],[0.25,1,0],[0.5,1,0],[0.75,1,0],[1,1,0],[0,0.25,0],[0,0.5,0],[0,0.75,0],[1,0.25,0],[1,0.5,0],[1,0.75,0]];outlineConnect=0;fontColor=#232F3E;fillColor=#ED7100;strokeColor=#ffffff;dashed=0;verticalLabelPosition=bottom;verticalAlign=top;align=center;html=1;fontSize=12;fontStyle=0;aspect=fixed;shape=mxgraph.aws4.resourceIcon;resIcon=mxgraph.aws4.lambda;" vertex="1" parent="1">
          <mxGeometry x="481" y="400" width="78" height="78" as="geometry" />
        </mxCell>
        <mxCell id="L-UXguyQIa5jLVYT8j9s-15" value="" style="verticalLabelPosition=bottom;html=1;verticalAlign=top;align=center;strokeColor=none;fillColor=#00BEF2;shape=mxgraph.azure.user;" vertex="1" parent="1">
          <mxGeometry x="41.25" y="319" width="47.5" height="50" as="geometry" />
        </mxCell>
        <mxCell id="L-UXguyQIa5jLVYT8j9s-16" value="&lt;strong style=&quot;margin: 0px; padding: 0px; color: rgb(66, 66, 66); font-family: &amp;quot;Segoe UI&amp;quot;, &amp;quot;Segoe UI Web (West European)&amp;quot;, &amp;quot;Segoe UI&amp;quot;, -apple-system, BlinkMacSystemFont, Roboto, &amp;quot;Helvetica Neue&amp;quot;, sans-serif; font-size: 14px; text-align: left; background-color: rgb(255, 255, 255);&quot;&gt;User&lt;/strong&gt;" style="text;html=1;align=center;verticalAlign=middle;whiteSpace=wrap;rounded=0;" vertex="1" parent="1">
          <mxGeometry x="36" y="378" width="60" height="30" as="geometry" />
        </mxCell>
        <mxCell id="L-UXguyQIa5jLVYT8j9s-26" value="" style="edgeStyle=orthogonalEdgeStyle;rounded=0;orthogonalLoop=1;jettySize=auto;html=1;" edge="1" parent="1" source="L-UXguyQIa5jLVYT8j9s-17" target="L-UXguyQIa5jLVYT8j9s-9">
          <mxGeometry relative="1" as="geometry" />
        </mxCell>
        <mxCell id="L-UXguyQIa5jLVYT8j9s-28" value="" style="edgeStyle=orthogonalEdgeStyle;rounded=0;orthogonalLoop=1;jettySize=auto;html=1;" edge="1" parent="1" source="L-UXguyQIa5jLVYT8j9s-15" target="L-UXguyQIa5jLVYT8j9s-17">
          <mxGeometry relative="1" as="geometry" />
        </mxCell>
        <mxCell id="L-UXguyQIa5jLVYT8j9s-17" value="" style="points=[[0.03,0.03,0],[0.5,0,0],[0.97,0.03,0],[1,0.4,0],[0.97,0.745,0],[0.5,1,0],[0.03,0.745,0],[0,0.4,0]];verticalLabelPosition=bottom;sketch=0;html=1;verticalAlign=top;aspect=fixed;align=center;pointerEvents=1;shape=mxgraph.cisco19.workstation;fillColor=#005073;strokeColor=none;" vertex="1" parent="1">
          <mxGeometry x="40" y="219" width="50" height="40" as="geometry" />
        </mxCell>
        <mxCell id="L-UXguyQIa5jLVYT8j9s-20" value="" style="edgeStyle=orthogonalEdgeStyle;html=1;endArrow=block;elbow=vertical;startArrow=block;startFill=1;endFill=1;strokeColor=#545B64;rounded=0;" edge="1" parent="1">
          <mxGeometry width="100" relative="1" as="geometry">
            <mxPoint x="319" y="437" as="sourcePoint" />
            <mxPoint x="480" y="437" as="targetPoint" />
          </mxGeometry>
        </mxCell>
        <mxCell id="L-UXguyQIa5jLVYT8j9s-29" value="&lt;strong style=&quot;margin: 0px; padding: 0px; color: rgb(66, 66, 66); font-family: &amp;quot;Segoe UI&amp;quot;, &amp;quot;Segoe UI Web (West European)&amp;quot;, &amp;quot;Segoe UI&amp;quot;, -apple-system, BlinkMacSystemFont, Roboto, &amp;quot;Helvetica Neue&amp;quot;, sans-serif; font-size: 14px; text-align: left; background-color: rgb(255, 255, 255);&quot;&gt;App&lt;/strong&gt;" style="text;html=1;align=center;verticalAlign=middle;whiteSpace=wrap;rounded=0;" vertex="1" parent="1">
          <mxGeometry x="37" y="269" width="60" height="30" as="geometry" />
        </mxCell>
        <mxCell id="L-UXguyQIa5jLVYT8j9s-30" value="" style="rounded=1;whiteSpace=wrap;html=1;" vertex="1" parent="1">
          <mxGeometry x="135" y="159" width="98.75" height="70" as="geometry" />
        </mxCell>
        <mxCell id="L-UXguyQIa5jLVYT8j9s-31" value="&lt;span style=&quot;color: rgb(66, 66, 66); font-family: &amp;quot;Segoe UI&amp;quot;, &amp;quot;Segoe UI Web (West European)&amp;quot;, &amp;quot;Segoe UI&amp;quot;, -apple-system, BlinkMacSystemFont, Roboto, &amp;quot;Helvetica Neue&amp;quot;, sans-serif; text-align: left; background-color: rgb(255, 255, 255);&quot;&gt;&lt;font style=&quot;font-size: 12px;&quot;&gt;&lt;b&gt;User Authentication&amp;nbsp;&lt;/b&gt;&lt;/font&gt;&lt;/span&gt;&lt;div&gt;&lt;span style=&quot;color: rgb(66, 66, 66); font-family: &amp;quot;Segoe UI&amp;quot;, &amp;quot;Segoe UI Web (West European)&amp;quot;, &amp;quot;Segoe UI&amp;quot;, -apple-system, BlinkMacSystemFont, Roboto, &amp;quot;Helvetica Neue&amp;quot;, sans-serif; text-align: left; background-color: rgb(255, 255, 255);&quot;&gt;&lt;font style=&quot;font-size: 12px;&quot;&gt;&lt;b&gt;&amp;amp; Authorization&lt;/b&gt;&lt;/font&gt;&lt;/span&gt;&lt;/div&gt;" style="text;html=1;align=center;verticalAlign=middle;whiteSpace=wrap;rounded=0;" vertex="1" parent="1">
          <mxGeometry x="135" y="169" width="104.38" height="50" as="geometry" />
        </mxCell>
        <mxCell id="L-UXguyQIa5jLVYT8j9s-37" value="" style="rounded=1;whiteSpace=wrap;html=1;" vertex="1" parent="1">
          <mxGeometry x="341.25" y="357" width="128.75" height="70" as="geometry" />
        </mxCell>
        <mxCell id="L-UXguyQIa5jLVYT8j9s-38" value="&lt;div style=&quot;&quot;&gt;&lt;span style=&quot;background-color: transparent;&quot;&gt;&lt;font face=&quot;Segoe UI, Segoe UI Web (West European), Segoe UI, -apple-system, BlinkMacSystemFont, Roboto, Helvetica Neue, sans-serif&quot; color=&quot;#424242&quot;&gt;&lt;b&gt;Application Communicate with Lambda Functions&lt;/b&gt;&lt;/font&gt;&lt;/span&gt;&lt;/div&gt;" style="text;html=1;align=center;verticalAlign=middle;whiteSpace=wrap;rounded=0;" vertex="1" parent="1">
          <mxGeometry x="346.25" y="366" width="118.75" height="50" as="geometry" />
        </mxCell>
        <mxCell id="L-UXguyQIa5jLVYT8j9s-40" value="&lt;div style=&quot;&quot;&gt;&lt;font color=&quot;#424242&quot;&gt;&lt;b&gt;Store the&amp;nbsp;&lt;/b&gt;&lt;/font&gt;&lt;span style=&quot;background-color: transparent;&quot;&gt;&lt;font color=&quot;#424242&quot;&gt;&lt;b&gt;Task Creation, Update,&amp;nbsp;&lt;/b&gt;&lt;/font&gt;&lt;/span&gt;&lt;/div&gt;&lt;div style=&quot;&quot;&gt;&lt;span style=&quot;background-color: transparent;&quot;&gt;&lt;font color=&quot;#424242&quot;&gt;&lt;b&gt;uploaded&amp;nbsp;&lt;/b&gt;&lt;/font&gt;&lt;/span&gt;&lt;b style=&quot;color: rgb(66, 66, 66); background-color: transparent;&quot;&gt;Comments&lt;/b&gt;&lt;/div&gt;" style="text;html=1;align=center;verticalAlign=middle;whiteSpace=wrap;rounded=0;" vertex="1" parent="1">
          <mxGeometry x="579" y="368" width="118.75" height="50" as="geometry" />
        </mxCell>
        <mxCell id="L-UXguyQIa5jLVYT8j9s-41" value="&lt;div style=&quot;&quot;&gt;&lt;font color=&quot;#424242&quot;&gt;&lt;b&gt;Send Notifications About Task Updates, Deadlines&amp;nbsp;&lt;/b&gt;&lt;/font&gt;&lt;/div&gt;" style="text;html=1;align=center;verticalAlign=middle;whiteSpace=wrap;rounded=0;" vertex="1" parent="1">
          <mxGeometry x="574" y="619" width="118.75" height="41" as="geometry" />
        </mxCell>
        <mxCell id="L-UXguyQIa5jLVYT8j9s-48" value="&lt;div style=&quot;&quot;&gt;&lt;font color=&quot;#424242&quot;&gt;&lt;b&gt;Storing File Attachments Related to Tasks&lt;/b&gt;&lt;/font&gt;&lt;/div&gt;" style="text;html=1;align=center;verticalAlign=middle;whiteSpace=wrap;rounded=0;" vertex="1" parent="1">
          <mxGeometry x="572" y="209" width="118.75" height="50" as="geometry" />
        </mxCell>
        <mxCell id="L-UXguyQIa5jLVYT8j9s-50" value="" style="endArrow=classic;html=1;rounded=0;" edge="1" parent="1">
          <mxGeometry width="50" height="50" relative="1" as="geometry">
            <mxPoint x="530" y="279" as="sourcePoint" />
            <mxPoint x="646" y="270" as="targetPoint" />
            <Array as="points">
              <mxPoint x="636" y="280" />
            </Array>
          </mxGeometry>
        </mxCell>
        <mxCell id="L-UXguyQIa5jLVYT8j9s-52" value="" style="endArrow=classic;html=1;rounded=0;entryX=0.062;entryY=0.071;entryDx=0;entryDy=0;entryPerimeter=0;" edge="1" parent="1">
          <mxGeometry width="50" height="50" relative="1" as="geometry">
            <mxPoint x="520" y="519" as="sourcePoint" />
            <mxPoint x="582.9825000000001" y="603.97" as="targetPoint" />
          </mxGeometry>
        </mxCell>
        <mxCell id="L-UXguyQIa5jLVYT8j9s-55" value="AWS Cloud" style="points=[[0,0],[0.25,0],[0.5,0],[0.75,0],[1,0],[1,0.25],[1,0.5],[1,0.75],[1,1],[0.75,1],[0.5,1],[0.25,1],[0,1],[0,0.75],[0,0.5],[0,0.25]];outlineConnect=0;gradientColor=none;html=1;whiteSpace=wrap;fontSize=12;fontStyle=0;container=1;pointerEvents=0;collapsible=0;recursiveResize=0;shape=mxgraph.aws4.group;grIcon=mxgraph.aws4.group_aws_cloud_alt;strokeColor=#232F3E;fillColor=none;verticalAlign=top;align=left;spacingLeft=30;fontColor=#232F3E;dashed=0;" vertex="1" parent="1">
          <mxGeometry x="119.38" y="79" width="720.62" height="660" as="geometry" />
        </mxCell>
        <mxCell id="L-UXguyQIa5jLVYT8j9s-56" value="Region" style="points=[[0,0],[0.25,0],[0.5,0],[0.75,0],[1,0],[1,0.25],[1,0.5],[1,0.75],[1,1],[0.75,1],[0.5,1],[0.25,1],[0,1],[0,0.75],[0,0.5],[0,0.25]];outlineConnect=0;gradientColor=none;html=1;whiteSpace=wrap;fontSize=12;fontStyle=0;container=1;pointerEvents=0;collapsible=0;recursiveResize=0;shape=mxgraph.aws4.group;grIcon=mxgraph.aws4.group_region;strokeColor=#00A4A6;fillColor=none;verticalAlign=top;align=left;spacingLeft=30;fontColor=#147EBA;dashed=1;" vertex="1" parent="L-UXguyQIa5jLVYT8j9s-55">
          <mxGeometry x="10.62" y="40" width="689.38" height="610" as="geometry" />
        </mxCell>
        <mxCell id="L-UXguyQIa5jLVYT8j9s-57" value="." style="text;html=1;align=center;verticalAlign=middle;whiteSpace=wrap;rounded=0;" vertex="1" parent="1">
          <mxGeometry x="850" y="670" width="60" height="30" as="geometry" />
        </mxCell>
        <mxCell id="L-UXguyQIa5jLVYT8j9s-58" value="." style="text;html=1;align=center;verticalAlign=middle;whiteSpace=wrap;rounded=0;" vertex="1" parent="1">
          <mxGeometry x="481" y="749" width="60" height="30" as="geometry" />
        </mxCell>
        <mxCell id="L-UXguyQIa5jLVYT8j9s-59" value="AWS Services for Project Management and Issue Tracking" style="text;strokeColor=none;fillColor=none;html=1;fontSize=24;fontStyle=1;verticalAlign=middle;align=center;" vertex="1" parent="1">
          <mxGeometry x="139.69" y="20" width="680" height="40" as="geometry" />
        </mxCell>
        <mxCell id="L-UXguyQIa5jLVYT8j9s-60" value="" style="shape=image;imageAspect=0;aspect=fixed;verticalLabelPosition=bottom;verticalAlign=top;image=data:image/png,iVBORw0KGgoAAAANSUhEUgAAAP4AAAAyCAYAAAB8vGaeAAABhGlDQ1BJQ0MgcHJvZmlsZQAAKM+VkT1Iw0AcxV9TpSIVESuIOGSoTtZBRRxLFItgobQVWnUwufQLmjQkKS6OgmvBwY/FqoOLs64OroIg+AHi7OCk6CIl/i8ptAgVvHDcj3d5j7t3gFAvM83qigKabpvJmCRmsqti4BUCfUOYxIDMLCOeWkyj4/i6h4+vdxGehf+NPjVnMcAnEkeZYdrEG8Szm7bBeZ84xIqySnxOPGHSAYkfua54/Ma54LLAM0NmOjlPHCIWC22stDErmhrxDHFY1XTKFzIeq5y3OGvlKmuek98wmNNXUlynOYoYlhBHAiIUVFFCGTYitOqkWEjSvtTBP+L6E+RSyFUCI8cCKtAgu37wN/jdrZWfnvKSghLQ/eI4H2NAYBdo1Bzn+9hxGieA/xm40lv+Sh2Y+yS91tLCR0D/NnBx3dKUPeByBxh+MmRTdiU/TSGfB97P6JmywOAt0Lvm9dbcx+kDkKaulm+Ag0NgvEDZ6x3u3dPe25//uP1B+gGZgHK2RnL/dQAAAAlwSFlzAAALEwAACxMBAJqcGAAAAMN6VFh0UmF3IHByb2ZpbGUgdHlwZSBleGlmAAB42m1QWw4DIQj89xQ9Ai9ZPI7tbpPeoMcvCia7bScRcMARKMf79Sy3AUIpUjfTpgoOadKoe2AQ6NMiyLQTRMDJXvjSjnxETo2SKAPT8Lj4fLA8do/qScgembhfE01S376EKByPjka8r45SiCkSmAI9xgJttp1HuK8JFixOGUbs2vbPffPt7dX/YaKDkcEts0YDPI4U7jOY1guR1eM6GUeK+UL+7WmhfAA0R1lLgDx+0wAADXZpVFh0WE1MOmNvbS5hZG9iZS54bXAAAAAAADw/eHBhY2tldCBiZWdpbj0i77u/IiBpZD0iVzVNME1wQ2VoaUh6cmVTek5UY3prYzlkIj8+Cjx4OnhtcG1ldGEgeG1sbnM6eD0iYWRvYmU6bnM6bWV0YS8iIHg6eG1wdGs9IlhNUCBDb3JlIDQuNC4wLUV4aXYyIj4KIDxyZGY6UkRGIHhtbG5zOnJkZj0iaHR0cDovL3d3dy53My5vcmcvMTk5OS8wMi8yMi1yZGYtc3ludGF4LW5zIyI+CiAgPHJkZjpEZXNjcmlwdGlvbiByZGY6YWJvdXQ9IiIKICAgIHhtbG5zOnhtcE1NPSJodHRwOi8vbnMuYWRvYmUuY29tL3hhcC8xLjAvbW0vIgogICAgeG1sbnM6c3RFdnQ9Imh0dHA6Ly9ucy5hZG9iZS5jb20veGFwLzEuMC9zVHlwZS9SZXNvdXJjZUV2ZW50IyIKICAgIHhtbG5zOmRjPSJodHRwOi8vcHVybC5vcmcvZGMvZWxlbWVudHMvMS4xLyIKICAgIHhtbG5zOkdJTVA9Imh0dHA6Ly93d3cuZ2ltcC5vcmcveG1wLyIKICAgIHhtbG5zOnRpZmY9Imh0dHA6Ly9ucy5hZG9iZS5jb20vdGlmZi8xLjAvIgogICAgeG1sbnM6eG1wPSJodHRwOi8vbnMuYWRvYmUuY29tL3hhcC8xLjAvIgogICB4bXBNTTpEb2N1bWVudElEPSJnaW1wOmRvY2lkOmdpbXA6NmYwZjI5ODMtODJhZS00MjRmLTg1M2MtNTZiMmI3YTkyNjcwIgogICB4bXBNTTpJbnN0YW5jZUlEPSJ4bXAuaWlkOmVmMzZlNGQxLTMyZDMtNGNhYy04YTI0LWVmMjQxY2RmZjgxMiIKICAgeG1wTU06T3JpZ2luYWxEb2N1bWVudElEPSJ4bXAuZGlkOmViYzk3ODM5LWEyNTktNDEzMC05NzU5LTEyN2NkYjgzNGE1ZSIKICAgZGM6Rm9ybWF0PSJpbWFnZS9wbmciCiAgIEdJTVA6QVBJPSIyLjAiCiAgIEdJTVA6UGxhdGZvcm09IldpbmRvd3MiCiAgIEdJTVA6VGltZVN0YW1wPSIxNzA2OTEwNzU3MTAxNzI1IgogICBHSU1QOlZlcnNpb249IjIuMTAuMzYiCiAgIHRpZmY6T3JpZW50YXRpb249IjEiCiAgIHhtcDpDcmVhdG9yVG9vbD0iR0lNUCAyLjEwIgogICB4bXA6TWV0YWRhdGFEYXRlPSIyMDI0OjAyOjAyVDE2OjUyOjMzLTA1OjAwIgogICB4bXA6TW9kaWZ5RGF0ZT0iMjAyNDowMjowMlQxNjo1MjozMy0wNTowMCI+CiAgIDx4bXBNTTpIaXN0b3J5PgogICAgPHJkZjpTZXE+CiAgICAgPHJkZjpsaQogICAgICBzdEV2dDphY3Rpb249InNhdmVkIgogICAgICBzdEV2dDpjaGFuZ2VkPSIvIgogICAgICBzdEV2dDppbnN0YW5jZUlEPSJ4bXAuaWlkOjU0OGU1ZmZjLWI5ZmEtNGRlMC1hOWQ3LWM5NzZhZDdhYThmNCIKICAgICAgc3RFdnQ6c29mdHdhcmVBZ2VudD0iR2ltcCAyLjEwIChXaW5kb3dzKSIKICAgICAgc3RFdnQ6d2hlbj0iMjAyNC0wMi0wMlQxNjo1MjozNyIvPgogICAgPC9yZGY6U2VxPgogICA8L3htcE1NOkhpc3Rvcnk+CiAgPC9yZGY6RGVzY3JpcHRpb24+CiA8L3JkZjpSREY+CjwveDp4bXBtZXRhPgogICAgICAgICAgICAgICAgICAgICAgICAgICAgICAgICAgICAgICAgICAgICAgICAgICAgICAgICAgICAgICAgICAgICAgICAgICAgICAgICAgICAgICAgICAgICAgICAgICAgCiAgICAgICAgICAgICAgICAgICAgICAgICAgICAgICAgICAgICAgICAgICAgICAgICAgICAgICAgICAgICAgICAgICAgICAgICAgICAgICAgICAgICAgICAgICAgICAgICAgICAKICAgICAgICAgICAgICAgICAgICAgICAgICAgICAgICAgICAgICAgICAgICAgICAgICAgICAgICAgICAgICAgICAgICAgICAgICAgICAgICAgICAgICAgICAgICAgICAgICAgIAogICAgICAgICAgICAgICAgICAgICAgICAgICAgICAgICAgICAgICAgICAgICAgICAgICAgICAgICAgICAgICAgICAgICAgICAgICAgICAgICAgICAgICAgICAgICAgICAgICAgCiAgICAgICAgICAgICAgICAgICAgICAgICAgICAgICAgICAgICAgICAgICAgICAgICAgICAgICAgICAgICAgICAgICAgICAgICAgICAgICAgICAgICAgICAgICAgICAgICAgICAKICAgICAgICAgICAgICAgICAgICAgICAgICAgICAgICAgICAgICAgICAgICAgICAgICAgICAgICAgICAgICAgICAgICAgICAgICAgICAgICAgICAgICAgICAgICAgICAgICAgIAogICAgICAgICAgICAgICAgICAgICAgICAgICAgICAgICAgICAgICAgICAgICAgICAgICAgICAgICAgICAgICAgICAgICAgICAgICAgICAgICAgICAgICAgICAgICAgICAgICAgCiAgICAgICAgICAgICAgICAgICAgICAgICAgICAgICAgICAgICAgICAgICAgICAgICAgICAgICAgICAgICAgICAgICAgICAgICAgICAgICAgICAgICAgICAgICAgICAgICAgICAKICAgICAgICAgICAgICAgICAgICAgICAgICAgICAgICAgICAgICAgICAgICAgICAgICAgICAgICAgICAgICAgICAgICAgICAgICAgICAgICAgICAgICAgICAgICAgICAgICAgIAogICAgICAgICAgICAgICAgICAgICAgICAgICAgICAgICAgICAgICAgICAgICAgICAgICAgICAgICAgICAgICAgICAgICAgICAgICAgICAgICAgICAgICAgICAgICAgICAgICAgCiAgICAgICAgICAgICAgICAgICAgICAgICAgICAgICAgICAgICAgICAgICAgICAgICAgICAgICAgICAgICAgICAgICAgICAgICAgICAgICAgICAgICAgICAgICAgICAgICAgICAKICAgICAgICAgICAgICAgICAgICAgICAgICAgICAgICAgICAgICAgICAgICAgICAgICAgICAgICAgICAgICAgICAgICAgICAgICAgICAgICAgICAgICAgICAgICAgICAgICAgIAogICAgICAgICAgICAgICAgICAgICAgICAgICAgICAgICAgICAgICAgICAgICAgICAgICAgICAgICAgICAgICAgICAgICAgICAgICAgICAgICAgICAgICAgICAgICAgICAgICAgCiAgICAgICAgICAgICAgICAgICAgICAgICAgICAgICAgICAgICAgICAgICAgICAgICAgICAgICAgICAgICAgICAgICAgICAgICAgICAgICAgICAgICAgICAgICAgICAgICAgICAKICAgICAgICAgICAgICAgICAgICAgICAgICAgICAgICAgICAgICAgICAgICAgICAgICAgICAgICAgICAgICAgICAgICAgICAgICAgICAgICAgICAgICAgICAgICAgICAgICAgIAogICAgICAgICAgICAgICAgICAgICAgICAgICAgICAgICAgICAgICAgICAgICAgICAgICAgICAgICAgICAgICAgICAgICAgICAgICAgICAgICAgICAgICAgICAgICAgICAgICAgCiAgICAgICAgICAgICAgICAgICAgICAgICAgICAgICAgICAgICAgICAgICAgICAgICAgICAgICAgICAgICAgICAgICAgICAgICAgICAgICAgICAgICAgICAgICAgICAgICAgICAKICAgICAgICAgICAgICAgICAgICAgICAgICAgICAgICAgICAgICAgICAgICAgICAgICAgICAgICAgICAgICAgICAgICAgICAgICAgICAgICAgICAgICAgICAgICAgICAgICAgIAogICAgICAgICAgICAgICAgICAgICAgICAgICAgICAgICAgICAgICAgICAgICAgICAgICAgICAgICAgICAgICAgICAgICAgICAgICAgICAgICAgICAgICAgICAgICAgICAgICAgCiAgICAgICAgICAgICAgICAgICAgICAgICAgICAgICAgICAgICAgICAgICAgICAgICAgICAgICAgICAgICAgICAgICAgICAgICAgICAgICAgICAgICAgICAgICAgICAgICAgICAKICAgICAgICAgICAgICAgICAgICAgICAgICAgCjw/eHBhY2tldCBlbmQ9InciPz5qHtPSAAAABmJLR0QA/wD/AP+gvaeTAAAAB3RJTUUH6AICFTQke87eGQAAODJJREFUeF7lfQeAFdXV/29e2be90WEpKhaEKIrYQSNW7BKxF+yJfokmn1ETS0zU2HvHFltsIVGJKHYUFbtiQVCQJmV32V3Yvu+9+Z9z7p2ZO/PmvX2LqPny/8Hs3Ln33H5PuWXmWaXlFXY6lYYDi/5pR04InUHjxmNYyu342fSPYVAILE3nhMQmHwz760VIfTRXnk0wBdNbJ06G/cYc4JslKoDgpWOgsgyRs0+Afent8mhHIkiXlDOxPHOKjitidSJ+1hFIXnG/PKdLyoBoDLabLDtsWO3tsDo7yGkjccHx6LhtGtDcqkgIqpZBRCS6mxSBUgIKi4CCuPYhGHVwXPbadf6IBIlLsGJxRIopDc7VpfETB8tjr23mv+rBgVfJQHRfjypYKq5Thtzw02R0kZlvENRkHJ5PLh6I3oyQb+Rc5SCEDa1w9Ky0PyUixAsRO20jnU5vuIuYIuhns5/t9wu7eEClUynYIWHOxf2UTqZCw/wX5+mVRcrAd31JeZxwKZ9Dq910Sdu4YZSvhHv0dqBOqtxMa16Zfip//eymr/3MK1tcIx79pztf/OxPg+us2p4uiZeZnuqXgJ9c2fyNMuS8uqHJmq++ugvPuHpKr68e50OX06a+i9IJ9f/PvFi2rheo+/mPC3kWh+fp+albt+hVifSqWv2QBeWlAGvC7hCPAeta9AMVQYtuZgSGJXd1WREKa+/UzwSSiA6UktP+Tt34TgMNhqWUHTpOEN0pCKMdg7A4TR2fqVQZnQQz40lI9uR+OmRrA11WW1sY/3fwf6e8aoQbHdBjZv0ecJhQEIshMrgG9srV4h8cE0wp9L17AQ2NXjkJvnQ0rOoKoHaNfiJEotphgOMxA5cUwW5o0p4Mvzzk8cflsdIp7UFmJQuHzi71bCB0LIeUjxJQdzNI08lfJ05YXELo9EaVUjkDUIKuZzDbWGCYxSJ8uoVHE559ljTySXpDIoeACS33j12+HwCRjM7tAbLGNVrLobFo0GSfTpHpsdEQpBcvU4yYBVafaqCLmC0fTTt0IOwVq8mh8rcjZAGEMIWVSsIa3A92bYPyYIbmKJyFr3r0QNMQQSIOmy2KrqR69sEXSSOkpQyrIhRkUuZEIH7WptUIE44unIHfTZY/BqJUrZK4jeKYEv6O1nf96cpWV6eOiaiKX0B3E72L09iyTxdG0NWvJB9r7b8XavRw+xit6Q5Tf7uFw6BZbyFC2it66AFI/uvf2iMLtt8G9tvvC70MCiO/4MC2Rg2H/e5cVwbZUWZ8QkBTWskuWP16If3VYknNjhqWgXgopymQLGJ8VwjkDaN8XAaug77CYDvWBSOMaQ3Gl9AQEh9yCNQfFl7BQmWPoW0TxKzv/OpbfHvBV1h8/le485BV7rA8cdsmLDp/Hr4l/1/vooT0xM1bMe93i+S6YX81RdyybycWnjcPi877EnccvEL8xg7qwCsnL8bn53yF109fgFl0zT1nHu46ZKWEd4fQcmdt76wB/1GI/JjlZHYNan1m2MgO28GuqycNvUr7Kn8fKQ30yK5jkX55tvbIgeJCoF9voEmvYrOZz6Z1SF3ZfI9svRns5WrguALCAcehiy0DB5FBfZD+ZrkEhZnQoWYwebm+mmkdYaXEmIaTXncaPxouMLKiO8Z3kgtkmyHMe2zu54+TxjRhk97tWNcRlSY6eGQTftaf116Af31ehvZkhDS/jb03Wyuy86itG9GntF2ug0c1oCJhY8chrSJAOP79H1QhRvQ3HbQcWw1sQUNbFCc9NRSHP7IRTn5qCJ7+okzSFuQw9/8b4akNRthY6qY9ZGAYNJ614Hl6fupmwurbG9E9dkPy4Se0Tzgi43aA/eFnWcxrP6zRW8D+6Eu3DOl4gVc18nKKIcxcWqgYsKVN/GyizSgoP7JloP0j22xGFoK3nZgfjDTD1hu0FeDADloURnsqOi6N58eunGO3W42fK/IPjz4lKZy7e524b53dG3NXFJGpnsaf91xNTGyjvi2CRz+qkvAt+3ZgSEUS4zZuRltXBIvqEyhPpITp999CLfwuqC3E7MVFJD8tLGvkPgV6lSRx2d4rcew2JDAov/eWkYL4QfDTtmU+EMYPMi/DHFQ/JOw1Dei6/hagU0n2IIQVyksR2Xs3pJ6ZKaXyNKW/nOJPot6asBPs52YpT2YSYWadllEtq6uTmHgE7DkkUBgxMuEN5nNB6Vq8tsCg4MjwGqQXLFXPWRCu9VVp7ZhnVbh1ccid/MkSCUlBgdVZWDkzwDSKzs5rByJP9FjrezS6un5Q5X9D5ntlUVIYdf7qQsxaWCpBu27UjL03VWclHvywEqm0hfLCFM7epRFlxOzvLCnBIx9XSnMcTQw9qr8S4Pe9Vy15seF00j8G4aIXBuKdxWUojKVx8JYNuHricrx5xkIMJgHiIofkDC13dvL/ePg1/noiKDhcZjRay/HLWORL0gBva9cPRiIEYQqac8dOOxapR/4BdIQLBxPW1psD360G5LAKoYAPuZgDVfcvpc2Mb+0yGum3PhF/u0BpAF/5CGIZ6LpEyorJ6qAyN2sLga78V8w1ncH4oWDtnMvUN9chAvAXXafBt3zK6Az8AKkpXH8IDK/uwknbqx2YrpSFO36xDFPGrhEhwDutF+6xWhbq5tUW4O3FJUJ39LbKOpj+ZRmem1cmzTWRtH11cRL1LTE88kmFhHPRh1Z04ZWFJTjrmYE4+MGN8MSnvSSouqSLGD9zZ+b/B9CkiQYhNY7LvMbI8RhY3b4v+LRZfPBwcuQvbyJ7joP9xXy6FmgfP3wDnRjKOmwvpJ98QT2TZkzHE8ptVoKcVicJG9LcaG4hIUEXlclmje/CoO/q0A7iuZ1GIfW2thDWBzm0tatwkkmql3owSkEP6smKeYxvMqW4fBEU+MBNXoz/I8EsCjP2ebvXiyZm5j3w/qHY7Jrhct3xlmLQEX3bcfy2ayX8trerxY/n7mzmT/usDPPr45hfW0RpqXWhp7+ooDCvjf+yzwq8ccbXmHPmfLx2+gJM3qpeLIcZX1biw+/yN/dDmzBrs2YN+I+ANfS8m+2m16ej7dPZauBxexlldheevHYMhdAZNF48fSctVfaLE1E+fjLq77wE7Z+94w10DW+F20xIpRRsRvZz6FWxSTtM3g9Y0wj75XeUf2GZMLPHZ9phpxFpaULsf49D+nGaPixdhXRRKWl8R0gQpWRI9MQ0TCugx8SfT0XHVQ/DbnGsFAVO2TkkZCJj84mP6iYKFb3yEZir+3YrCSJifieuLwWeypSRGWzQu21NYJffYiERQtMoz6rKA04CvnT8+QiMDsyoZyg8Gqf4fBszsEsW5No6I/hwhSd8eetumwGkkYlodUsUX9fHiOGB7YieF/nWdkQwd5WynoZVpjCoXK2LfExptBDjO23atySNrQd20tSgU7YFWztj+GxVAksao74+cBE0+QyEdLFZrQCyp5MPdthuNOLxOGa/8z4JndCSrhf4yK5VXF5lF+28DwpGbof2L95H+3uv0cAjM9nIyO3wbuohdAaNRVo0UlGBxC67ID5iC7TPno3kh5/QQOygtqWhEqhLKOMT2D9YbaZw6UmoxHfeCemdSRtfM5XSJT1Imt5OKLPQ6yzlsNpbYCV5fr8F0h/NI2UfRaqUTUMKd2nJSZla7a0yJWBEthiK6Pit0TX1mYyBzk/5ML5VWi5bhqYv182tC5d93Vrl1FS+FDguM34AuZg/zQuXJEjyxo/I+BkIYzr20t48VcwX3ngi5B8tvAwaoeXOmXZPMvZQVVmBObP+jcJEAbbafk80NqkxccRhB2DgwP646fb7SCet37qNYvySMjvFK8j0ULDpKBRuNx5WQQGSSxeh8+vPkFr9HdBO2oIFQTd1YAayiooQHTgQBZuPQKymBmkaxB1vEcMvXqxodCI9YXxGLuaP9uuHsvP+gLbnZ6BjJpn5/IJNcbmmUHCSttiMbtfzfw2mdc18I2uL2iXSoo8Hk3/B749F14MzYK+sz2RourplfCqXVczaWtFmUpNPsou0s/nij6JyaK1CskoKM83TnIzP6x090Rh5Mz7/2XDMX0DarbiomGRbFF3UTy0tLUg5i5KkqUuKi1FWUkJa20JLazvWrWsm89/Ln+PH4zEKaxN3eXkpEsQ4zc2tWNvcLDkXlxSjlC52NzatQ3uHN40rKS4i+ZhCR2eXzquY6mQLXUcHWQtkLpSVllJYIdF0oqGRph+a+aI0/SoqKiRW6aA0PCEbjxcgURBHa1sb0fI2o4ViSruNLDCegpWWlkh6HNa4VuXjYOjggYhRW3zz7VIpb5zSeeqRqRg2tAa77T1J2ojpuR25vq1Ub7M9GEU0XpjRuU0caMYvJcbXjUsJSOfSXDnaqx8SW26D2IAatL0xUwQBBxXttDssyoQbhAtDtUCkqkoY3qJ4NjFKcvlSdH3xOVL1dbB4YsYwenl9mD8X4zM4TNLlubq8hedfABMyNvFbiZGNxuHtO5vMfI7tgdOhTiJaFhT8HBm5EaK7b4uu2/7hkgYHumRh1NOBy7xFZIFoAWPTAAhSsjZLs7VlHN5x48pfupeVURXVGonJ3GZq7HLC7C6aMhidnjfyZn6jLYNhBs4b34TFTRE89gkLZAWnqRKkaE4/+Vgcf8xkYtYydNJgZtP2n8/MwMV/uRbVVRW4+A/nYL999kQnMRwzFjPg3M+/xMV/vhqffTFf0rn4grNxzJGTKN5zGDtmtNBUVJajgNJ/+O9PYaOhQ7DpcOpHYqa+fXqjvr4BU844B5/M/ULifzD7eayurcOKFauwxeabCjP17dsbq1bV4pHHpmGvCePRp3cvmqkl0Ku6Cq/NegtTTv+tlGfPPcbh7luvxk233UPa+F5Jj/H7c35JdTse+x16LOYvWIhtth5FzHs3Zsx8Gf379UXNoAHEbjEpz6rVdTjxtLPx+ZfzZVy/+Ozfpe7b73YgDpy4J84+8xQM32RjYdxVq9SZlwceeRJrSWD88fe/xmVX3YT7H/K2xSsryjCT0qitq8chR5yMLr0VzvHVCHJAfSiLRVSR1OrlaH11OtY+eie6li50wzs+penAx++i42O+v0fm+2to+deTWPe3qVh7961ofuRBtL/+KlK1q2V+nA+sfn1CtVh34CHnboexmxrLLi6jB66W8nfAdFZbs1rockANYBcWk8NPy5DtO9K+EkbSPH7EBCQfmqEC1we8d28uHmZmSWUjhmfrywhzxJ385cVLzfQMU2hKv2mwyw3jegS0wE+Bzfp0okZW0I1yaud5vzsLl/zxXDw9/XnsMH4ith83ETv//CBcc8MdpN0jeOjeW3D0EZPwm3MvxPbj98OO4w/A/sRIm2w8DP968gH07qUW/EpIQ/cmxvyCGOewI0/BznschHETDqFuTOIYin/V9bdhwsTJ2OnnB+Ks3/4BQ4bU4IxTjpO4jIqKcozYfDNccc3N2HP/I7DT7gfhgouuwEYbDcV2Y7bGCaeeg3F7Hir5v/7G29h37z2IkUdKXBYuZSSUywLTMNbuLMxi+mAYz9n5uWbQQJz9+0uw+76HU3kOwvkXX0GafDBOnXKM0DFKKa0KmiqzgPz38y/jsKNOFcFUW1eHCVS+8ftMwh13P4jHnnwaK0k4nXv2L4nZPcHKaQ0ZXINrbyQeDpx/8TN+Hki3kHm1tomuRnUnU15MU/PASdg4MwafM0gjAwYgfuIxiB04kawI1TDeIoY/EWFc7Rb074PIYfvoBwIzOzO9nMnPhNXBZeTK63SpNdOFapGM0/XZE2QZ8DqAg9heY5H64CvYa7UJ7iQRLCNd2U7yWQkSbNyDGrIOod0u+F3/HLD4PEIgEjO4KQB84DxCXiTKC06igbQzSm2YHcH2yAeFpD2PPPxgNNEc9urrbyfzuYnMYjLjm1vkqqkZgLHbbYN33/sIz7/4GtrIlO4kYTb/60V44KHHaS5ciX32HK9TU/hq/jdoIi3IZvuahia6GsWkX0Bx2ORl/28Xq3MYrNVNdJGw/3rhYjHN2ZReuoymuoQlS79DXf0amQZwGRZ+qw5wFSa8BeGeYBHFX7Z8pUwNmCm/mLdAxngxWc5h6KR819LUhl8F59fF165rIU3fLFMObq/zSUBVkxXymzNPFvoB/fvif355El548VW89oZa7DZB3OJjp6xwO7ybvg0OjIyBQgweG7MNCs86HfE990DXcy+g656/waZK5Qtr1OaInnYU0q/PkWebzfsiknQu0ytWdmB1tpEG95iKy2QnSNOzFqbiqRIScwrTkonPawDUwIK+VYiMHYHk9DyOCmcD56MPEQnzGwLABVsiehExFKT5eIolCDQpQ/GpFyAuU8qHCKT/CEixuE3UTWBIMp77MmKsGLS39+KO0lsOzY+KnyDLXJj9znsyxZly3JEYUjMQv/2f02S+fyFNhTxl6iHS66Q/oOKQk1AwfJQyRYlGmJVpQ8bn+sAiM75gm9EoPu5YFJ96Mj0Xof3u+9D54KOwyXTJF/wVneik/RDZeQxSV94B1DfCjlKZiytcJtZ/XAjT02XCLiiCHdOM6CdHpKPdXcVnE7/gtEPQdd+zZC3kN20JRSJEijPz62YWaG3vak2jXGIx8FqEfhb4HjTIz9T+vI33o6DHWt+jYe355LRnyEStwOWXnI+BpKlkYa6shLRWH9KKK8SsHrPNVph82AGyUMZz9G1Hj8IpZMrW0vh5nrRaduRTniwwG7MbdOmTnRvTtKCAyhijsbPxsMHYbPjG4r8hwAzM1kFhUSEG9OuN0pIiaScGC79Lr7hBLJabrv0zjj7yMNxy+71ksagXlYKI1N13OZrf+DdiA4ei/MgzUXbc2Sg56DgkRu8IS59k86AbIqw92GSmeY5VUoro0GFIbL8TSo44CmWnno6SyZPJpkqgbdo/0Xr7Xeia/ZY7KMNe1w0z962hNYieewbsVXVI3f0oMQppM2Yo3+e0/GDzPozpEayXzoa3+GRKwG66IpsMQmr2p0gv817vdeHECfjzk8/cZ2EqAjUQn+CWmrV9Lial+kW4bfWjA56kZCy2EWS80tSLv1T0veAM/EDRM6y47wlelPrT5ddg/K474c2Xn8VnH7yOOW/MwDmktXgsnHzGObj3/kfwpwvPxdx3X8Vn776Cxx66E+998DHN9Y+T1XVGI915IavDWKnnZmcTnS8ZV7robDrX1ddT3EblQVhdW0+CpF4/KbBgqqtbQ6a1/+Mv/FxHebXxjhfhnTkfYOZLr2KP3XbBJ++8hHdnPYdr/3oJFi9ZKmVyBAOXjePxToEJVZ41NC3Rr4cT1qxpoDLVukOHFxFvuOVuNDc348V/P453XpuOX556ggok8Dz/L3+9AbvuvAMWLVqMm++4T4dkQq/q8wDRA4gHWUU1otV9kPpuMTEob+WRP+Ve9ovjES1VbzTZ7uoABYrJRXMPqpzM/Wnen/zma6Qa6smEVxV0B6jBpI5fztX98jJED92PJ2NIPfYMLJr32azdeSVeL5iouF66DNmyKylA9IDdkH70OfGzC4rlWK5XBCOOnUSkhbd8vIKYK/TK5VZaQQcHVh/kSeLyJYJJxzPSc8BCz2olYSMLiQ6MUjhRuK68HUiahLdNVZtzkorAZEZu1xTNUbk/MnIMKUNOOFI5EC1D4BgdGGwPxr2TavFlbRTXzlILcQoendNcZaUlovF5Lt7W5heGrEV5lduKRmQrr601c01Edn8cTtFgP5+/zlbajvwcarctffG5pn46B7w1Z9Jy9Eq9i8DMyVuOyt+hU+n7ymIg6B9eHpVvEVnRrP15vcMB0//u16fif8/+FY447nS8/qaaCgdhbOc5mkFlJCCnVJi9jHxl0PFApsxlHsyFClm9d+MaED9xeAGOX5D5LRoA0QnjYJHplHrmBdiLlqh4rLFZ0xtpMFzm55Xx9nWwavohOuVQpO+bBpDG5jk9H+oRKjeqdqSJ6dvUXreZaibj81+DwnCGMj8LJ55SmEGBcvMOit3WEohtpGcEOH7yl9KxWBjwSr8WBq7lRGZfigYew4iuEMw/H2wA5s+H8TPgVigA9qarJ4d5GA4jCXoSNUc+oeXOSt6TTPNHn95VuObyi2S3YOyYbXDXvQ/i8qtuNtnWh/wYX7vNVHz+OSB0Bo0Xz/N0/BzGt3pVIbr7rogMG4LkczNhf/WNypuZlhfkWOhwfCNdhow5bapbO4+GNW4M0rfSlKCFNF8RWSnMgD5pqh0ktCJt/r19M+n11fqymMe7BgwzyBwplKfdQmYq11t7OQhjfAb7B2ndNLlD+SwF1ck2zPys9PniB2b8HbffFj8buYU8rVy1Gs/OeEn8BWFMx17ae0Oc5GMLg+fmbFEsWbpcVs8ZvFd/8AF7k46LyBz6mX/PJHPcM8UZWZtS+zOTTTp4ohwmYrz3wSf49LN54t5Q4HLv9fNdZeuQzwB8tWAhDS2vL4IIYXyGv3Fc5jXS8RhY3bLBjavhxfM8xY8Ga2TUFojSAGBGTM58FTZ1gFDFErD46C1rNF8hKNRJhi0PPoYbjyB69IHyZl5q2osUzKv9el/f7CHW7PyYIk3P23aBRjIoQxif/xoU2ukb6FzWkjLy0ULCCBLoNO32NprcsTlIz+QXJAtjfsfPR2vWTcMsT0ZoCH1uED03USBaZokJWZg/nPEZFv52z804aOLe8lRP89rNttrZG7jZGNtp2u/J+GyWT3t0KrYfu62E19M8e8L+k7H8u5U0X98ZTzw8VRESJh11Cl4P2RoLbU7tx6f55r77ipwRYPAW5Ll/vEzcPxUyD/BsYAijGjzlMi53KjP7FpshdsxkxM88BVZ1Nboeegxd9zwkTI94Ic2P+UQgb9MRIxnp+MCM09wIa5MaRM+ZAvutj5B+8nmaDxfA5tV+Z35tgnuKX8ltZW2bOU0xszIX6kKLoD1pdqYd5JJjuXR3mCAsIp8pEKZnhKb8wyFrY2ZDeD0yZ73rB5NvMngojKkYTpEMQdMdfFpQOwviMTmgI1qQ+qyqqtI9EPTfjEjxDnsh1n+oOhwiosvfOC7zGh3gMbC6dQtKl7f0YsM3QWK/fVB0yhQUnnAsIv37Izl9BrpuuhOpV96A3UUJkoa2SnsRPTEPrycY8GkYMuvR0kQmSwzR04+ENXYrpK69F+l5i9SePk8LzAK6nU56iKcD+rx+LpMoHLnpbT6WS4MoJ9gU5zfwfMiPjRwB46MNqYMriAj5pLvB0AMNrNBd6bKEb6BKNbe0Yt+Dj8Kll1+DK68ly+MXx7tHePNF6BD6URu957Aqthxjx4ePQqRXf9g010mT6Zta/i3S6xqQWlNL90a14kwaiuYEMmi5pq6g7aafmVkLRo9GfOSWSK5cieS8eUjTPE72xfm8Ou/Dszkvi2BkmlN6wSQdhucGttJdsHnLrSiO6N7jYA0egNRTz6sv6hYU6S1Ixw50/yhQAnI4J6VXQntVqTLUeVs6DswydGvuM+jRLizxvdrrwDVH5UaVIKa35RRhAFT/QKpEbcZVcPx8tEYZHZimdkZoCH238NXDg08gM0LM/eymPvDgPbfgQG3q8xbWpmTq8154/359MGzIYMRjcTmjzyfq+Dy7OzXlpOkqpDbnl2oYfNqOV/zDoI7ORqXqLS1tcupN4hcmUEwmOYNXyvnEICNfUz9CCfaisbTJxkNQWlJCLJKiqcIqLF+xUg7R5GPq8wtCXF/n7D6nsWpVHZYuX+GWxwG3DR9PZrQ0t7or+/xCEu+K8DkHPgHJW4RhEOumqLjU5kwEVAGrsJjMgFJE+9Ug1qcfIiWliJRXyl0+AMFMb6XR/OJ0JBd9o+OpWzbIwGAaHtikxfmDHBYxu5y0cweguoczPoE0vM178kUFiOy+E7DFJsD0l5Gev4gEBy+kqYU/NeZ0Cm5C5OjqUJqeGY9BjRS78VLYDWuR+uOV5B/M1YhO6G6Rzy5SW4Vh8DF+OwktKovJlC42MOMzzHwyKLLEyYofgfH56O6dUx/AkZMPlfPsPIgd8F74Z5/Pw5+vuB6zZs+hoUj5UDdceekFOO7ow4Xm2yXLsPvek2TP20RFRRnefvVZYX7GXfc+hMuuvEnqcst1f8EhB+4n/qtJsIzZdV9x58P4fJDoovPPxnZjRst83kGaFGT9mjV44cXXcOhBE11GVYz/F3Kpdhk0oJ8cs+X685FbZkoHXD9m4OnPzcSV192G2jr1laKzzpgiL/8wHnzkSdx61/044+TjcNAB+6Jvn17SZjfeOhVXXa9+Pi4ImeMXlFQjVlRJU+IS4kNiRpKC6YY6dH75EVpfn4Hm557E2senoum+G9E49Tq6rkfD3Teia9HXOpkgqEI8gGXPuZAzQKSoAtFSyoeuSEklrASZ8bwV1d3AI4HE2t1upgqXJxA5fCKipxwFewFZJNdPhf31MpJcFWpaQHky1NjUA49vNIe32tYp017P560h/RH//YlI334fUpdcS/7eQF0f2Ikig+lz1Inn9ProsGmKu6ByBH1dOiMgX3N/gyNL1TJK7QgIQmg9c4A145lnnIzvSFs+/ewMPPzoE5jxwsvycgq/4LLN6J/hiUem4qTjj9AxSFuWlhLTFcnFGo81cBBRUjj80otDxyvgDsoN/3ISEPniF4dMxPR/PoRxu+5IcQuljHw2/tHH/oF/Pv2cvBvAAsVh+iDGkNB4ZcaTmHL8UWQxVONTmmIww5534WW4/e4H5PBPdVWlvLU4/am/uS/gFJN14JR30qEHYNaL/6Q2O0nO56dI4LDVw68Q5wK1kUUMX4BoogSxwnLES6oQpzl2QVkvxMt6k7sa8eIqRJl5KTxaWEa0ZBHQPULz8Wgx+RVXClMzfaycLrpHSaBEiysQIaa0eCvOUoyuuoQHQ7Bz1ACxeP7b1Q67pZE0fDMiIzdB9FfHI7L/BNivv43UTffBXsgMXynrAc46ACsZQ9EQ6IHSAaUj6wEMsliiE3dF9LAJ6LrxYaTnLmA1osJCBqjpk7nIp/8WEtPzCzhuON+5bl79ZAGKy9DR3euxThobDjkZr8fCQtNv+GK6YI2/9Q574IBJx+GUM/8Xvz73Yhxz0pnYftx+mPXm20LD79xfetG5GDp40PcvS4/ie8QbDR2MG6/9s2wFMl5/4y3sOH5/HHvS/+A3516CM359Pg4+fAp23H1/MtUzpx5s2t9zx3Wi5RlXXH0T9jn4GFx+9c2478HHccll12HP/Y+Ul3kYG288DMcdNUncJngh8l/PPI9Dj5iCUWN2x+ZbjcNmW+2Kq6+/Q1OEQ4sFo/auk5iUGZVNc9LOLBwicdbgRXTRdCBOd3pmk13m6fz+uzC2w9w9AGt2MuPtVmJ2uqyh/RE7dhLivzwRFn8c4e6Hkbr/Cdj1NNchIWSR0PEW/vxMJszPc3he+OtoEYblf9Zg0vLnngh7XSuSNz0K0N1Ezxf5KE4Rz+nDzXsFXS5eIzHe9suNzHK4tTOC1kfr5w7dwFhPrZ+k+TsfwQ1WhY/IXvKXa9x+Yo096dD9f+RKEbR2OXD/vVCoXyVns/4PF18pb8wFwW/Qmb9G7WCXncbKVIbBbwryK8k1A/thSM0A96ooL8WLL78uNIxhwwZrlwfO+9LLr8Obb7+P+oYmeQtRPgbi26LPhDC+72w5gx/zadBgNOPZ6/YAmIgXCjvJhGcTnOdcFWSejR6B+HGHo+CMExEZUoMkmUpdN09Fas7HJFzIVCKLwkoUkyCKBAYFsbU8U46cbisNGt6mS+s5HgmO2OR9Ed1/PJK3P47UrA/8BV0fkICTb/Q5b9w5cNM10k+maKqhBFAQoQxBdJm+IXQ/FRyzKlCksFJvaPDBFP5yjYMRmw/XrvXB9yvvyC031y7qYjKtFy9Zpp/yw1ajRmgXMTRZD3NmzcD7s1/IuE496VhNxR/CyjyivL6IJNNdZIW2Ic3mNTMOL/TJIKXL1zb8rD1MrtakDkQi8+Dl+TRpXpvmtGnSvKm2JiTXNdBVj1RLA9KynZZG5Tl/RckxZ5Jp34JOmht13vEAUq+SSddJlgNv6/HWHC/e5YDF+bQ2yeWu2CfisPbcCdGzjkb6k3lI3kkWQ5MyubJp9zB/00eYlywNOR/AZQpPRiD8QZqe1xe4PX5KmAImoyQ/cdmyIaxYCepT/sSVA3e1e32q8D2rnTJPRloRWWnvCUyNzOsZV113G123ZlzX3jQV19B19Q134e9PPiN5rYdNnYFI+cEnovyoM1F88LGIb0/z35Fbwe7bG6mCKFJWkqRZO5IdzUi2rXWvFF/t+k4MLRfNpVMd9JxqRVfLGmLwOiTpnmprJMZvlnm70sJei9tdnVhzwQlo5tX1BUuIp4qI2ZUpb0V5e89fQUersDd/jIDn8DYJEZkeOAxPHRDZbSyivzkeIJMxde19sL/61o2bG7lp+Lt88i0/d5qRA7yLEPjMVxjy1founRHg+Plof0JGzii1Ye4HSrle2H38zvKZLgcvvqx/NMVAhKemgXGTCzKV9dHnEZek+gcffaofSAeQMBq3yw7izrf5P/7E+0Q7b0U++sQ0XHfz3RnXjXc9ipvv+jtumfo4vl5ch0RJL0Rpmm0iEqNpd5Sm3Dwu86x7ZM3fb8KaB67G2mn3ov3DN5GsW4Vo34Eo3G5XlBxwBMqPPg3lx/0K5SecSdcZKD/mZLpOQhlfx05B2fEno+yk01F2Ml1TTiP/E2ReHgoqlBWJweK1gkQZIszkBaWyym8VkDkfYalpFDysEdkqYWuhdY26O1uRRZTmHjsids6JZC2QFXPd/Ui/R43b4480ZNLzlpS85MOLicGBESSnnrf4nX6xaDwwWZi5H46elrl7bFCtn8Xc3xDgFWteLa8Z2F8WzpgpK2g6uO9eu+O6v/5JUwHvvf8RXnr1DXG361djGf1Iae01YZz7kQ5e3R5Ec2f+Zh2fB3AQjSdQwAvSvMtkfLWJe1fWrAjBz1UNGTwIVZXlspr+7IuzsEr/DDuX8dorL5F8eV7Ozyygagb1x2EH7Sff6Atizodz8dXC5eLmnYzH/nYnxu+yvaTvCCKe1vLefN8+1TSt2ZjaRq8n6XAHvCMXS1QgXtgLBYW9ES/qJc/ReDEJhAIiZ0Xlj2NV9hliJ8kk5b182yYm4lV1vvNgoEukuDMwdFxPQuo7BYsfXequ9uvVnTqAGFoaV9M4sGgA2Y5WMPwzwGVL0vyGNLzlHrFV9PxLt9YeO8Ma1A/2S7ORnjtf6uCAqZzyci1MM8mrhx9sTrmgeqjTeN7g4Hr54CZDTN/ufe3H2cN2wE/meQAPYXpft2UAbppGkOPno84Vl5ARmqUtssLtN3Uz4TNFxWnjnkm1mFcbwzXd7OMzEycSCZk3t7by4ZSkrIAzszntwdry2Cln4ruV/J0EYPvtRmP6tIfk4AuDF7x4a62lpVW+gcefqmbTmg+0sBBh3PvQk7joiluU+6ZLsd/ePxc3f8Z65B5HyoJ2zaYjMPOey1BepAQBb5V1dnRg5gdf45L7ZmCzvmW4+beT0b+v+uEPniq2tbXJp7B450F9MZhf8Em7ZXP28WOkSDb/2RjcdtlvMHLLLSSM4/M8vmldC6XTSoIqJuXnrUJ2/+r8G/HKrDk4c8oh+PVpR0ocTnuL7fanPPkDpeIVDuKbNFncdrqTuiSNaGFp5Z+40/nknFq5T4gpES3giwrOV2EJolRQ51n25vk5Tv7sl1DP7M90svJP6XB6asVfM70zINxxwYNbOxnmA8/baZoBmiaAT+qxKa9rJh/8GDMS0Un7ygc67FfeRnomSf9V9S6NA8nVSDc/xlf+Nlkm/PFOnyBgSLARl52UL7/aa/7GnqIw6AjyFJpviB/RZfpqH1+AevB7ZcY0KTJCs7RFVgi5jhOImlFqejxoy1bUtVp4a3HmnvbwTTZCn97VpEFr8cdb7sVT35DVSZZdH2I43mPn9uf329//8BPcfNvdOO/Cy30fsli+YhXmfjFPztzzXjevA/C363jfn0/7PfrUdPzuwquw6NulGDZkoHxd99X3P8fnq1tQOGwkNh21NaoSEdRR/l8tXIIXl5Lgpvwbli/GK8/PQO+qCtmL76KpaUNDI56d9g+8+tRDWPTpe3j40adEWJWUFImAikT5l34j8mWgF156DRdcdLl8RahPryr58MdMmp58/OnnpMu6UPvdEjzy+DQq12JRkCyUiojJy0qLyV0u1k+SxtPCRUsx85XZmPH6BzQNrhJraGDvEjQ0rsOK+lbM+qSW6symfoTYhAVA5i6CjCVSYmwBMH9blX2Hyck9pYkCHeYgw5s8nIFi8pn2CxtDrmZ3oB+V1icHl4HN+FSnMLlrTZJD3NSZ1mYbI7LjGFjlJUh/MBf2nI/JCvDMMWZYP9urbPwM7rmzMb5o98JS9VkvSYD+SyH5QedgCgMqd6SthYKMBtdJ56v1g3QCogsykUtneDt+GSl0k08+9DmRRetnMr6j8aOk8ZV2dEF5RirJ5N5qO0SHbITUiuXo+ngO0nXqZ8tZY/KHJ/iYrifTKQcyX5Wy4lOgrJFVngXxKEqIefiT8a1tHUhz+mVViPceiHj/YbCKSJAQXZqEdKr2O3TVLUeq0fsitFOlJJ8jcaaR2RAY0zyeHA0fuoAcaBY/VGBhIu5+wDMVKURninexMtNiaie5KLVDSWU/lJT3RVFZtTB3KtmJ9uZGNDeupGu1CBonHTmyW0GMrypITJOr431BzGDc+OQ0y6TjhyXjMj4zhzQMMzlpR17w4/y5UEZEll5WKXXSiOGwRm0Bi+Y66S++QprmRvzarce0/sy6Y34OMwemj/k5Ln/ogy/zSC45PcbX0PHkm35skahcxE+gnWEMHVZGRiYtPRNt0NelMwIcPx+tWTcNM4+M0BD6nMjC+Ixgqe/5xWphfD6yy2Xg32GIjxyN2GYjkFpTj66P3kN6lfqirYIXX4pFfyJynkSfGzGnXg6Yhpgm3reGrsGIVfWVwZ5qovRXLkGylubU3R2iory4b1LUp+nAZ9tCEWB+E6HNmZU8MyBeXC1aOhc4VliS3MaFxVUoqeiLUrriZImnaErPgqC1aTULwAqZxsvXXKgxZbuAtRmXmi63AyUHLwvpPPGkyMYo5sRkWBODc6OLUJG5BUtsxfRObImuIUd8yayLbDxUvroTGTQANs230h/PRXr+NzT58+9hbljGpzj8MUtqHM+sV/6m08f8VBf5BDcLL4JKU4c5EC8tTPSLTo53/lqf+kM7Hbh0RoDj56MNyYMpzPbJoAiNkwNZmN9sY4Yw/poEbli4NWLbbk+CvAhd77+D5MIFekwEQfGpLBFicl6IY+3u9blRX0on3mcACgYNQ7xXf6TbW9G5bCEx+lKk+AUzppG/foT5OeAqsfWZ5O3h7sDEVC5ZtJYXgMit+ccoroAtV+YP4QPNGy5fKAp95+gRxEt4PSRXSRWYIhsVt5OTPO94FJVWo6ov8VhhUTGZ+mbDqyRUoemPcxfo7jT9+CYjSWrl+BqOENDcK0JzmEjvXrA2JvOLmDxCGsBeswbprxYg/fUi+Vaf83KLa+4b8AaBPyOTwR24lEaYOzBpQPFbdTTC1DPBS9ERAgTuS834Fi8y8jsEKkSg4hj0DBoIfNDHXTXWx3Yt7uzgqCC4DO0DD6ActEaQywzyV6ObfDJCQ+hzIsD4RXEbh9B8PkrpmCkdv10T6mrG4qW6gej86F3Y/J3BHOAToWzGc5uqdPzl4t2g2OY7oKC6N1Kr5qFj6UL1K0TUKV4V/HGCyBb65rJSLF0XJ5negWgB70AVoaCStGZpJZWJ5sg0XuK8BkZulR+lRNzFb6+qN1hJ0dHc3FF60uI0NYmycuN5Nl3uXeKqkcRxkzSuUh0tFC0p05v2dfVyzoa1dZK3xGUIhpecfcNCuL8lC5WNMvUHnX6J3dm6Dum1a5BsomvVMtgkNfngjd28FnYHZ8ZTAYYxsCkH6VrOSRJVqXKF+N17/qkn+TIszbeiA4ixKytpXlHBm5YSJ9XUhNTiJUgtWCCaXS2K6WIbFXOGT0+ZP0AqFA49h7EG4Y9visnI/kYSko88+xnZonaQH9zUWp7jmfmosuo82ILg3QCdp+9LMfwRED6i7Ep6DyZTutjAWt/MIyM0hL5bGMzPjH/oyBZifBuR6moUjNkF6dq1OKrgBaxsSuGF+dQmDrELajleFNMLVBmg+kf6DkBso1FysCv5DVmBjSt0Ej0vbzCGY4myNq7YYRLeWt0by9uo/6ifkjRNSDU3oLNhJbqa6pT5z7RaW6sEspchtDmzkMu6hQgFqi9ZOoUlVSgmgZMorkAhaeoYWT58/JcFQbKzHa3r6tDe0ojOtnUiGJxpQUgLCrjfuarC+IVFJTL8rIIEon0HIUZmU6SqN6KVVfJFXbfg/LYPf2CTwK/nyoCnR5mnM0iycagNSo2EAP/ijt3YgFTDGqRWr0Jq5UqRgmLWOUKCYzjpExwmN1trgzM+DS47TgxPA80D+QuBemKovNifLiqv1eV9n98go3J5T+KizuOf5XKP8+rw4Cei5ImFK7+xZwgAkyldhDA+p+DW0Q30/Hz0RhkdbFDmD2h9FvSJPSYgQoO07aUXka6rI1OfF/cixmu5VFbKh7VmhLUqTzUDsPr0R2zL0fLF5/SKpej67APYNK5MRgttL4JXhUA4tbVaRFYXL3q545EiMfMogRwcQblAeWQhz9qU2fyzB2hwGXkKVIDyXoNRWj0QxeX9pB1ZIHS2rcXa+mVoaybr2RAGJkTAFBYS44vpaWapXOGFNjwljvzxVdxjYHXLBjeuhhfP8/SlpTvIRF7MzzQxskL4xJPTEH5yyccdT3R3hIzFjddJZqnBnGZUn8lOUlq+rGtqLR0eyvgCyoi3YAwBkDmY6ZnSCfq6dEaA4+ejNcuo8UMwfnRwDRIT9oDNP1n1yitkMfLnylWYYnxe3KuiwUgaTV744k+dB6wq/l2GkaNhDRwCe9UKJJnZ9c+Gu30tfeOVMYz5XVIxv9VCslyh6wkevPFEyEw2OwL9ayK0ObOS9yTTTLBlUNlnI5RVD6LpCC/odWJdwwo0N3yH9tYmEbAyxfghGJ/hY9gccONrePE8T8evx1qfzXgaYKzlOT1Foenoxj5s3qlHL760BQ0SYXgaOL7BoGH68C/8yLSBTDEJCNLr5+zMT+B5IR/xJYQN5DCt79IZAY6fjzak/ME8MihC4oSC6KKDBiKx+8/J/G5CBzO8MX932lW289YU4MY5g4jpnWO3Oo8YDcZhmyA64mckADuR+pSYfQW/9GIIb0JGPxgCwKmPmOAkrHlbOJ1W2jzY7rmw3owvxP4I7piiNJVL1cYZc+LpVtBXU33//mDBWt57CKr6boKist745uPnyMqhqabJ+EKobgTlCu9/w5OcUi32MsruVVrdssGNq2E2lgO32fJhfNa2zOgxrd29ZATqUXvSzU2b/ombpyzC8HoKQwhqJYZOQX6KyzY+BOL6s8N50CADTbsU3GA2+WWbSVUuyJQK5OcOIA8urRHg+PloQzrSzCcjNLzjfYj274fEXnsizb/r/iIxfEtLRkJcYt5n33JADG3pGJY184KdglVWjujW28Ki+Xv6y8+R+noetYXX7g58LBEsFzE2L4Sl2Wpize7Muxm6ub8X40ubk4PnxWQiy6fauK9ZazKt0+90d/tXkqA/Pn4Ig9PfdHesWbqz0ztFSxYKT0/oWbmFSEjXF2qOrxmfwe3jFVC5wvvf8JQ48sdXHvFTjpwIo/P8PE/HL5T5mcGF2Um7++aKFMdIl6EetacEazczOs/jDYZ3EMr4lGeaP/sth3z8mbhP5AiOOR/zszbi3QFe7Q/AZEoXMrj8cOmMAMfPRxvSkWYeGaHhHS+IVJQTw08ghiZmfu552MT4goD24FX5aKIIztl3AaXLH1mNbjuWWsJC13vvwOafVM8Bt7t5u0wzA2t1ZnaZo2ez3rkcdEkfd8Mripl5UU2tvKvtbYe5dYWCIH/+YE2Kv1NJ8+ugYBfofENTyJKsCggJZKHACVL90yTkxEpkpc1CQaYw3VRS43swPsMIkHjyx5e3x8Dqlg1uXA0vnufp+LmMz2Y8aVt+4cfZLlMD2aw8PXtJCNSj4clmj6zU6j320ApT7o4/3eVHN3l+anK1r6x+CJnjqePwlp78FgB3XEieJlO6IDq3bTRcugC54+/z7iafjNAgfTyOxK47IbbpcLQ9/SzSq9TpOhe6bhGi4yPfvFIvYKaitKLDhiE6dgdi9Fok35nNB/M5UNHkAqUTH70DiiYchHVP3IOOz96jvAKD3OwLE5oX/X1FA5+YWk79MaPzJXUNpMFlLi5DtJCPpRfLlp4cX6epSoymdjEaAxUbj8aaL9/Gd7OnUeyQNDSCysoBFyszhkqHT+H1rtkStUs/l5V7YfZsYKFAY0lO6PEHaUUohAsDYfwEMb5pHvkLolwh44VgeEoc+ePLxx2kBmkY3LgaXjzPU7Q6v+xDzC7vwvu0sKLjvyp7s7Lk6yUjkP34ZIfsx7O0dPMjhDM++0fBP8FlywIhD2RiGd9gMtJw/3rlEFLtZfEv4wZ2CPJjfnomuqBvGPNvaMaPbT4chXvvgY7XZ6Nr7uccMQMsgJlBFCNpT0Js+KaIbzcWySWL0fXuu3rdRAcKMnIWWFW9EBu1LSJ07/z6S9itzeic/1n46TuzL0xwV7Em57FDloccBOKxRHBjUGFixNSx8moU9KkR5paFR6ojfzciuZa/IdGEjvrvkNI/tSaMRhcLN+Ef9uOkwrS+Rhjz+4aQvitE0KtmBIaMHIeGFQtoyJMgpX8pYv4Ub+WtrZOVe77znD0YW0Bl4jBe1FQCQQkOYXz+yq6SDApOQdRN/w1JU8EIIGfmkDT8sqahIHQGjSUdpbU6m4rMbP7CBWB6mi1s+HPF+RAEMz09MpM7lGbZg8xv8zRC9vydTqVwTeJ2ZiCOenL8aJCIkz/8SfNgo71dhDRyyDgh8Ej2Umb4BIR2hjM0uQxShi8uIfjEv2GYOGQilbsDbc/OCJ2DsxBmk541oXM0m/9GhgxBwS67IsUMP0cxvAsi8PIycqV2iGw6ApERWyG1pg6d77yC9Bq2LAwaQkZzmRxEtDx25CUxPiymLUIHkfJeiPejsvUbqr4JSa2QaqyVc/udKxcTs5MlJvnpHgjmlRM8gekGlKxD4yu2hvLiv1kCqb3LqgaguLwPSqv602NMpj2t62rR3MBn81dSwpmjRyYKPK20k/h/95saik5ng/QAAAAASUVORK5CYII=;" vertex="1" parent="1">
          <mxGeometry x="324.5" y="760" width="324" height="63.78" as="geometry" />
        </mxCell>
        <mxCell id="L-UXguyQIa5jLVYT8j9s-61" value="&lt;font style=&quot;font-size: 24px;&quot;&gt;Mar- 2025&lt;/font&gt;" style="text;html=1;align=center;verticalAlign=middle;whiteSpace=wrap;rounded=0;" vertex="1" parent="1">
          <mxGeometry x="710" y="771.89" width="130" height="40" as="geometry" />
        </mxCell>
        <mxCell id="L-UXguyQIa5jLVYT8j9s-62" value="&lt;font style=&quot;font-size: 24px;&quot;&gt;Abdelrazik Rizk&lt;/font&gt;" style="text;html=1;align=center;verticalAlign=middle;whiteSpace=wrap;rounded=0;" vertex="1" parent="1">
          <mxGeometry x="119.38" y="770" width="181" height="30" as="geometry" />
        </mxCell>
      </root>
    </mxGraphModel>
  </diagram>
</mxfile>
